<svg xmlns="http://www.w3.org/2000/svg" xmlns:xlink="http://www.w3.org/1999/xlink" width="145" zoomAndPan="magnify" viewBox="0 0 108.75 93.749996" height="125" preserveAspectRatio="xMidYMid meet" version="1.0"><defs><g/></defs><g fill="#ff00ff" fill-opacity="1"><g transform="translate(9.11131, 55.624633)"><g><path d="M 14.957031 -10.558594 L 4.398438 -10.558594 L 4.398438 -17.597656 L 0.878906 -17.597656 L 0.878906 0 L 4.398438 0 L 4.398438 -7.039062 L 14.957031 -7.039062 L 14.957031 0 L 18.476562 0 L 18.476562 -17.597656 L 14.957031 -17.597656 Z M 14.957031 -10.558594 "/></g></g></g><g fill="#ff00ff" fill-opacity="1"><g transform="translate(31.942661, 55.624633)"><g><path d="M 4.398438 -17.597656 C 2.464844 -17.597656 0.878906 -16.015625 0.878906 -14.078125 L 0.878906 0 L 4.398438 0 L 4.398438 -7.039062 L 14.957031 -7.039062 L 14.957031 0 L 18.476562 0 L 18.476562 -14.078125 C 18.476562 -16.015625 16.894531 -17.597656 14.957031 -17.597656 Z M 4.398438 -14.078125 L 14.957031 -14.078125 L 14.957031 -10.558594 L 4.398438 -10.558594 Z M 4.398438 -14.078125 "/></g></g></g><g fill="#ff00ff" fill-opacity="1"><g transform="translate(54.774013, 55.624633)"><g><path d="M 18.476562 0 L 18.476562 -3.519531 L 4.398438 -3.519531 L 4.398438 -14.078125 L 18.476562 -14.078125 L 18.476562 -17.597656 L 4.398438 -17.597656 C 2.464844 -17.597656 0.878906 -16.015625 0.878906 -14.078125 L 0.878906 -3.519531 C 0.878906 -1.582031 2.464844 0 4.398438 0 Z M 18.476562 0 "/></g></g></g><g fill="#ff00ff" fill-opacity="1"><g transform="translate(77.605364, 55.624633)"><g><path d="M 18.476562 -17.597656 L 14.253906 -17.597656 C 13.769531 -17.597656 13.332031 -17.421875 12.976562 -17.070312 L 6.46875 -10.558594 L 4.398438 -10.558594 L 4.398438 -17.597656 L 0.878906 -17.597656 L 0.878906 0 L 4.398438 0 L 4.398438 -7.039062 L 6.46875 -7.039062 L 12.976562 -0.527344 C 13.332031 -0.175781 13.769531 0 14.253906 0 L 18.476562 0 L 18.476562 -3.519531 L 14.957031 -3.519531 L 9.679688 -8.800781 L 14.957031 -14.078125 L 18.476562 -14.078125 Z M 18.476562 -17.597656 "/></g></g></g><g fill="#00ffff" fill-opacity="1"><g transform="translate(11.791181, 56.24333)"><g><path d="M 14.957031 -10.558594 L 4.398438 -10.558594 L 4.398438 -17.597656 L 0.878906 -17.597656 L 0.878906 0 L 4.398438 0 L 4.398438 -7.039062 L 14.957031 -7.039062 L 14.957031 0 L 18.476562 0 L 18.476562 -17.597656 L 14.957031 -17.597656 Z M 14.957031 -10.558594 "/></g></g></g><g fill="#00ffff" fill-opacity="1"><g transform="translate(34.622533, 56.24333)"><g><path d="M 4.398438 -17.597656 C 2.464844 -17.597656 0.878906 -16.015625 0.878906 -14.078125 L 0.878906 0 L 4.398438 0 L 4.398438 -7.039062 L 14.957031 -7.039062 L 14.957031 0 L 18.476562 0 L 18.476562 -14.078125 C 18.476562 -16.015625 16.894531 -17.597656 14.957031 -17.597656 Z M 4.398438 -14.078125 L 14.957031 -14.078125 L 14.957031 -10.558594 L 4.398438 -10.558594 Z M 4.398438 -14.078125 "/></g></g></g><g fill="#00ffff" fill-opacity="1"><g transform="translate(57.453885, 56.24333)"><g><path d="M 18.476562 0 L 18.476562 -3.519531 L 4.398438 -3.519531 L 4.398438 -14.078125 L 18.476562 -14.078125 L 18.476562 -17.597656 L 4.398438 -17.597656 C 2.464844 -17.597656 0.878906 -16.015625 0.878906 -14.078125 L 0.878906 -3.519531 C 0.878906 -1.582031 2.464844 0 4.398438 0 Z M 18.476562 0 "/></g></g></g><g fill="#00ffff" fill-opacity="1"><g transform="translate(80.285235, 56.24333)"><g><path d="M 18.476562 -17.597656 L 14.253906 -17.597656 C 13.769531 -17.597656 13.332031 -17.421875 12.976562 -17.070312 L 6.46875 -10.558594 L 4.398438 -10.558594 L 4.398438 -17.597656 L 0.878906 -17.597656 L 0.878906 0 L 4.398438 0 L 4.398438 -7.039062 L 6.46875 -7.039062 L 12.976562 -0.527344 C 13.332031 -0.175781 13.769531 0 14.253906 0 L 18.476562 0 L 18.476562 -3.519531 L 14.957031 -3.519531 L 9.679688 -8.800781 L 14.957031 -14.078125 L 18.476562 -14.078125 Z M 18.476562 -17.597656 "/></g></g></g><g fill="#000000" fill-opacity="1"><g transform="translate(10.451245, 55.933982)"><g><path d="M 14.957031 -10.558594 L 4.398438 -10.558594 L 4.398438 -17.597656 L 0.878906 -17.597656 L 0.878906 0 L 4.398438 0 L 4.398438 -7.039062 L 14.957031 -7.039062 L 14.957031 0 L 18.476562 0 L 18.476562 -17.597656 L 14.957031 -17.597656 Z M 14.957031 -10.558594 "/></g></g></g><g fill="#000000" fill-opacity="1"><g transform="translate(33.282597, 55.933982)"><g><path d="M 4.398438 -17.597656 C 2.464844 -17.597656 0.878906 -16.015625 0.878906 -14.078125 L 0.878906 0 L 4.398438 0 L 4.398438 -7.039062 L 14.957031 -7.039062 L 14.957031 0 L 18.476562 0 L 18.476562 -14.078125 C 18.476562 -16.015625 16.894531 -17.597656 14.957031 -17.597656 Z M 4.398438 -14.078125 L 14.957031 -14.078125 L 14.957031 -10.558594 L 4.398438 -10.558594 Z M 4.398438 -14.078125 "/></g></g></g><g fill="#000000" fill-opacity="1"><g transform="translate(56.113949, 55.933982)"><g><path d="M 18.476562 0 L 18.476562 -3.519531 L 4.398438 -3.519531 L 4.398438 -14.078125 L 18.476562 -14.078125 L 18.476562 -17.597656 L 4.398438 -17.597656 C 2.464844 -17.597656 0.878906 -16.015625 0.878906 -14.078125 L 0.878906 -3.519531 C 0.878906 -1.582031 2.464844 0 4.398438 0 Z M 18.476562 0 "/></g></g></g><g fill="#000000" fill-opacity="1"><g transform="translate(78.945299, 55.933982)"><g><path d="M 18.476562 -17.597656 L 14.253906 -17.597656 C 13.769531 -17.597656 13.332031 -17.421875 12.976562 -17.070312 L 6.46875 -10.558594 L 4.398438 -10.558594 L 4.398438 -17.597656 L 0.878906 -17.597656 L 0.878906 0 L 4.398438 0 L 4.398438 -7.039062 L 6.46875 -7.039062 L 12.976562 -0.527344 C 13.332031 -0.175781 13.769531 0 14.253906 0 L 18.476562 0 L 18.476562 -3.519531 L 14.957031 -3.519531 L 9.679688 -8.800781 L 14.957031 -14.078125 L 18.476562 -14.078125 Z M 18.476562 -17.597656 "/></g></g></g></svg>